<svg width="8" height="12" viewBox="0 0 8 12" fill="none" xmlns="http://www.w3.org/2000/svg">
<path d="M2.42297 4.6969V2.8269C2.42297 2.1369 2.98297 1.5769 3.67297 1.5769C4.36298 1.5769 4.92298 2.1369 4.92298 2.8269V4.6969C5.52798 4.2919 5.92298 3.6069 5.92298 2.8269C5.92298 1.5819 4.91798 0.576904 3.67297 0.576904C2.42797 0.576904 1.42297 1.5819 1.42297 2.8269C1.42297 3.6069 1.81797 4.2919 2.42297 4.6969ZM7.34298 7.0119L5.07298 5.8819C4.98798 5.8469 4.89798 5.8269 4.80298 5.8269H4.42298V2.8269C4.42298 2.4119 4.08798 2.0769 3.67297 2.0769C3.25797 2.0769 2.92297 2.4119 2.92297 2.8269V8.1969L1.20797 7.8369C1.16797 7.8319 1.13297 7.8219 1.08797 7.8219C0.932974 7.8219 0.792974 7.8869 0.692974 7.9869L0.297974 8.3869L2.76797 10.8569C2.90297 10.9919 3.09297 11.0769 3.29797 11.0769H6.69298C7.06798 11.0769 7.35798 10.8019 7.41298 10.4369L7.78798 7.8019C7.79298 7.7669 7.79798 7.7319 7.79798 7.7019C7.79798 7.3919 7.60798 7.1219 7.34298 7.0119Z" fill="#62758C"/>
</svg>
