<svg width="10" height="10" viewBox="0 0 10 10" fill="none" xmlns="http://www.w3.org/2000/svg">
<path d="M8.99995 0.000183105H3.99995C3.44845 0.000183105 2.99995 0.448683 2.99995 1.00018V3.00018H0.999946C0.448447 3.00018 -5.34058e-05 3.44868 -5.34058e-05 4.00018V9.00018C-5.34058e-05 9.55168 0.448447 10.0002 0.999946 10.0002H5.99995C6.55145 10.0002 6.99995 9.55168 6.99995 9.00018V7.00018H8.99995C9.55145 7.00018 9.99995 6.55168 9.99995 6.00018V1.00018C9.99995 0.448683 9.55145 0.000183105 8.99995 0.000183105ZM0.999946 9.00018V4.00018H5.99995L6.00095 9.00018H0.999946ZM8.99995 6.00018H6.99995V4.00018C6.99995 3.44868 6.55145 3.00018 5.99995 3.00018H3.99995V1.00018H8.99995V6.00018Z" fill="#62758C"/>
</svg>
