<svg width="10" height="8" viewBox="0 0 10 8" fill="none" xmlns="http://www.w3.org/2000/svg">
<path d="M5.00034 3.00024L3.00034 5.00024H4.50034V8.00025H5.50034V5.00024H7.00033L5.00034 3.00024ZM8.50033 0.000244141H1.50034C1.23512 0.000244141 0.980765 0.105601 0.793229 0.293137C0.605692 0.480674 0.500336 0.735028 0.500336 1.00024V7.00025C0.500336 7.26546 0.605692 7.51982 0.793229 7.70735C0.980765 7.89489 1.23512 8.00025 1.50034 8.00025H3.50034V7.00025H1.50034V2.00024H8.50033V7.00025H6.50033V8.00025H8.50033C8.76555 8.00025 9.01991 7.89489 9.20744 7.70735C9.39498 7.51982 9.50033 7.26546 9.50033 7.00025V1.00024C9.50033 0.735028 9.39498 0.480674 9.20744 0.293137C9.01991 0.105601 8.76555 0.000244141 8.50033 0.000244141Z" fill="#62758C"/>
</svg>
