<svg width="9" height="10" viewBox="0 0 9 10" fill="none" xmlns="http://www.w3.org/2000/svg">
<path d="M0 7.83685V8.6625C0 9.34506 1.51172 9.9 3.375 9.9C5.23828 9.9 6.75 9.34506 6.75 8.6625V7.83685C6.02402 8.39953 4.69688 8.6625 3.375 8.6625C2.05313 8.6625 0.725977 8.39953 0 7.83685ZM5.625 2.475C7.48828 2.475 9 1.92006 9 1.2375C9 0.554941 7.48828 0 5.625 0C3.76172 0 2.25 0.554941 2.25 1.2375C2.25 1.92006 3.76172 2.475 5.625 2.475ZM0 5.80852V6.80625C0 7.48881 1.51172 8.04375 3.375 8.04375C5.23828 8.04375 6.75 7.48881 6.75 6.80625V5.80852C6.02402 6.46594 4.69512 6.80625 3.375 6.80625C2.05488 6.80625 0.725977 6.46594 0 5.80852ZM7.3125 6.02121C8.31973 5.80658 9 5.40826 9 4.95V4.12436C8.59219 4.44146 7.99277 4.65803 7.3125 4.79145V6.02121ZM3.375 3.09375C1.51172 3.09375 0 3.78598 0 4.64062C0 5.49527 1.51172 6.1875 3.375 6.1875C5.23828 6.1875 6.75 5.49527 6.75 4.64062C6.75 3.78598 5.23828 3.09375 3.375 3.09375ZM7.22988 4.18236C8.28457 3.97354 9 3.56361 9 3.09375V2.26811C8.37598 2.75344 7.30371 3.01447 6.1752 3.07635C6.69375 3.35285 7.0752 3.7241 7.22988 4.18236Z" fill="#62758C"/>
</svg>
